<?xml version="1.0" standalone="no"?><!DOCTYPE svg PUBLIC "-//W3C//DTD SVG 1.1//EN" "http://www.w3.org/Graphics/SVG/1.1/DTD/svg11.dtd"><svg t="1654419507061" class="icon" viewBox="0 0 1024 1024" version="1.1" xmlns="http://www.w3.org/2000/svg" p-id="21046" xmlns:xlink="http://www.w3.org/1999/xlink" width="200" height="200"><defs><style type="text/css"></style></defs><path d="M1003.8 31.2l-2.7-21.9-21.7-3.7C978 5.3 946.6 0 900.1 0 846 0 765.4 7.4 689.2 42.6c-58.4 26.9-109.9 90.1-153.1 187.7-7 15.7-13.1 31-18.5 45.3-8.9-29.4-20.2-56.6-33.9-81.3C458 148 424 110.5 382.7 83 281.8 15.7 184.1 1.6 120 1.6c-47 0-77.2 7.6-78.4 8l-20.2 5.2-1.9 20.8c-0.2 2.3-5.2 58.1 7.1 128.7 7.3 41.8 19.2 80.4 35.3 114.7 20.6 43.7 48.1 80.4 81.9 109.2 48.5 41.3 99.9 71.7 152.7 90.3 41.7 14.7 84.5 22.2 127.1 22.2 26.7 0 49.5-3 66.7-6.2v77.8H202.7V925c0 54.6 44.4 99 99 99H753c54.6 0 99-44.4 99-99V572.2H549.6V407.8c39.8 6.4 77.3 9.7 112.1 9.7 114 0 202.1-34.2 261.7-101.7 100.2-113.3 81.2-277.7 80.4-284.6z" fill="#98CD5A" p-id="21047"></path></svg>