<?xml version="1.0" standalone="no"?><!DOCTYPE svg PUBLIC "-//W3C//DTD SVG 1.1//EN" "http://www.w3.org/Graphics/SVG/1.1/DTD/svg11.dtd"><svg t="1654418888079" class="icon" viewBox="0 0 1024 1024" version="1.1" xmlns="http://www.w3.org/2000/svg" p-id="20183" xmlns:xlink="http://www.w3.org/1999/xlink" width="200" height="200"><defs><style type="text/css"></style></defs><path d="M495.573333 162.986667A349.44 349.44 0 0 0 220.373333 704v93.013333a64 64 0 0 0 64 64h218.24c189.013333 0 355.413333-154.24 358.613334-343.253333A349.44 349.44 0 0 0 495.573333 162.986667z m-119.68 394.453333a46.293333 46.293333 0 1 1 33.28-33.28 46.506667 46.506667 0 0 1-33.28 33.28z m147.626667 0a46.293333 46.293333 0 1 1 33.28-33.28 46.506667 46.506667 0 0 1-33.28 32.64z m142.72 0a46.293333 46.293333 0 1 1 33.28-33.28 46.506667 46.506667 0 0 1-33.28 33.28z" fill="#FC455D" p-id="20184"></path></svg>