<?xml version="1.0" standalone="no"?><!DOCTYPE svg PUBLIC "-//W3C//DTD SVG 1.1//EN" "http://www.w3.org/Graphics/SVG/1.1/DTD/svg11.dtd"><svg t="1654420023560" class="icon" viewBox="0 0 1024 1024" version="1.1" xmlns="http://www.w3.org/2000/svg" p-id="22983" xmlns:xlink="http://www.w3.org/1999/xlink" width="200" height="200"><defs><style type="text/css"></style></defs><path d="M512 512m-448 0a448 448 0 1 0 896 0 448 448 0 1 0-896 0Z" fill="#F96E6E" p-id="22984"></path><path d="M448 128c-107.4 0-206 37.8-283.2 100.8C101.8 306 64 404.6 64 512c0 247.4 200.6 448 448 448 107.4 0 206-37.8 283.2-100.8C858.2 782 896 683.4 896 576c0-247.4-200.6-448-448-448z" fill="#F95050" p-id="22985"></path><path d="M384 192c-91 0-175.6 27.1-246.3 73.7C91.1 336.4 64 421 64 512c0 247.4 200.6 448 448 448 91 0 175.6-27.1 246.3-73.7C804.9 815.6 832 731 832 640c0-247.4-200.6-448-448-448z" fill="#FC3A3A" p-id="22986"></path><path d="M384 256c-126.5 0-238.7 61.2-308.7 155.6C67.9 443.8 64 477.5 64 512c0 247.4 200.6 448 448 448 34.5 0 68.2-3.9 100.4-11.3C706.8 878.7 768 766.5 768 640c0-212.1-171.9-384-384-384z" fill="#FF2929" p-id="22987"></path><path d="M513.4 189.9l103.2 201.8 230.8 32.4-167 157.1 39.4 221.7-206.4-104.7L307 802.9l39.4-221.7-167-157.1 230.8-32.4z" fill="#F99B9B" p-id="22988"></path><path d="M513.4 189.9L596.9 428h250.5L624.7 567.1l95.1 235.8-206.4-152.2L307 802.9l95.1-235.8L179.4 424h250.5z" fill="#FFFFFF" p-id="22989"></path></svg>