<?xml version="1.0" standalone="no"?><!DOCTYPE svg PUBLIC "-//W3C//DTD SVG 1.1//EN" "http://www.w3.org/Graphics/SVG/1.1/DTD/svg11.dtd"><svg t="1654419884377" class="icon" viewBox="0 0 1024 1024" version="1.1" xmlns="http://www.w3.org/2000/svg" p-id="21949" xmlns:xlink="http://www.w3.org/1999/xlink" width="200" height="200"><defs><style type="text/css"></style></defs><path d="M417.109333 607.914667c-3.242667-2.56-29.525333-22.528-102.4-27.306667a30.037333 30.037333 0 0 1-11.605333-5.461333 62.293333 62.293333 0 0 1-12.629333-10.410667c-5.632-6.656-11.946667-12.117333-17.066667-19.626667a150.016 150.016 0 0 0-75.264-61.098666c-6.826667-3.413333-33.28 0-20.650667 18.261333 0 0 40.448 55.978667 43.008 60.416a88.746667 88.746667 0 0 0 14.677334 17.066667c4.437333 5.12 9.216 9.728 13.824 14.677333a236.373333 236.373333 0 0 1-31.573334-21.674667 90.453333 90.453333 0 0 1-6.144-10.581333c-2.389333-4.096-5.12-8.021333-7.850666-11.946667s-6.826667-9.557333-10.410667-14.336l-13.994667-17.066666a102.4 102.4 0 0 1-8.704-10.922667 19.114667 19.114667 0 0 1 14.677334-31.744c0-2.218667-6.656-59.562667-7.68-68.266667-3.072-29.696-6.656-49.493333-22.016-55.808a8.192 8.192 0 0 0-9.898667 2.218667 108.714667 108.714667 0 0 0-6.826667 36.522667 930.986667 930.986667 0 0 0-5.290666 100.010666c0.853333 17.066667 53.930667 134.314667 69.12 152.405334s134.144 86.698667 134.144 86.698666a61.952 61.952 0 0 1 25.941333 42.496v48.298667h128.341333V776.533333c0-8.192 1.706667-17.066667 2.56-24.405333a88.746667 88.746667 0 0 0 0-34.133333 200.533333 200.533333 0 0 0-76.288-110.08zM885.418667 390.826667a108.714667 108.714667 0 0 0-6.826667-36.522667 8.021333 8.021333 0 0 0-9.898667-2.218667c-15.872 5.632-18.944 26.112-21.845333 53.76-1.024 9.557333-6.997333 66.901333-7.68 68.266667a19.114667 19.114667 0 0 1 14.165333 32.597333 102.4 102.4 0 0 1-8.704 10.922667l-13.994666 17.066667c-3.584 4.778667-7.168 9.557333-10.410667 14.336s-5.461333 7.850667-7.850667 11.946666a90.453333 90.453333 0 0 1-6.144 10.581334 236.373333 236.373333 0 0 1-31.573333 21.674666c4.608-4.949333 9.386667-9.557333 13.824-14.677333a88.746667 88.746667 0 0 0 14.677333-17.066667c2.56-4.437333 42.154667-60.245333 43.008-60.416 12.8-17.066667-13.824-21.674667-20.650666-18.261333A150.698667 150.698667 0 0 0 750.933333 545.109333c-5.290667 7.509333-11.605333 12.970667-17.066666 19.626667a56.32 56.32 0 0 1-12.629334 10.24 28.16 28.16 0 0 1-11.605333 5.632c-72.874667 4.778667-99.157333 24.746667-102.4 27.306667a200.533333 200.533333 0 0 0-75.776 110.421333 87.893333 87.893333 0 0 0 0 34.133333c0.853333 8.192 2.389333 17.066667 2.56 24.576v44.373334h128.341333v-48.981334a61.952 61.952 0 0 1 25.941334-42.496s119.466667-68.266667 134.144-86.698666 68.266667-135.509333 68.266666-152.405334a930.986667 930.986667 0 0 0-5.290666-100.010666z m-296.106667 151.552c60.928-57.173333 136.533333-128.341333 146.773333-191.488a138.069333 138.069333 0 0 0-21.162666-109.738667A136.533333 136.533333 0 0 0 614.4 191.829333h-12.458667A145.066667 145.066667 0 0 0 512 223.744a145.066667 145.066667 0 0 0-90.282667-32.426667h-12.458666a136.533333 136.533333 0 0 0-100.181334 49.322667 138.069333 138.069333 0 0 0-21.162666 109.738667c10.410667 63.146667 85.333333 134.314667 146.773333 191.488 0 0 30.378667 30.549333 39.424 38.229333a64.170667 64.170667 0 0 0 37.888 17.066667 63.658667 63.658667 0 0 0 37.888-17.066667c9.045333-7.68 39.424-38.229333 39.424-38.229333z m-154.624-275.626667a66.730667 66.730667 0 0 0-70.314667 62.464 18.944 18.944 0 0 1-37.888 0 104.789333 104.789333 0 0 1 108.202667-100.352 18.944 18.944 0 0 1 0 37.888z" fill="#EF6D59" p-id="21950"></path></svg>