<?xml version="1.0" standalone="no"?><!DOCTYPE svg PUBLIC "-//W3C//DTD SVG 1.1//EN" "http://www.w3.org/Graphics/SVG/1.1/DTD/svg11.dtd"><svg t="1647416690706" class="icon" viewBox="0 0 1024 1024" version="1.1" xmlns="http://www.w3.org/2000/svg" p-id="10278" xmlns:xlink="http://www.w3.org/1999/xlink" width="1024" height="1024"><defs><style type="text/css"></style></defs><path d="M984.475309 315.013028c38.910319-110.382431 35.633661-204.791153-18.021621-257.422479s-143.353807-58.57027-257.627271-18.226413A511.977883 511.977883 0 0 0 39.364138 708.826415c-40.958231 113.863881-33.995331 204.791153 18.226413 257.627271a168.543119 168.543119 0 0 0 122.874692 44.234889 416.340414 416.340414 0 0 0 134.138205-26.213268 511.977883 511.977883 0 0 0 669.66707-669.462279z m-54.269655-221.174445c30.309091 30.104299 37.27199 84.988329 20.479115 155.231694a517.712035 517.712035 0 0 0-175.710809-175.9156c70.038574-16.383292 124.922603-9.625184 155.231694 20.683906zM512.022119 51.242023a460.984885 460.984885 0 0 1 417.36437 266.228499c-40.958231 105.467444-124.717812 233.257123-251.688327 360.432429s-254.760194 210.320514-360.432429 251.483536A460.575303 460.575303 0 0 1 512.022119 51.242023zM93.838585 930.205652c-30.718673-30.718673-37.476781-84.783537-20.479115-154.822112a514.025794 514.025794 0 0 0 175.9156 175.71081c-70.448157 16.383292-125.332186 9.420393-155.436485-20.888698zM512.022119 972.802212a459.346556 459.346556 0 0 1-126.356141-17.816831 1232.842741 1232.842741 0 0 0 327.665845-241.243978 1228.746918 1228.746918 0 0 0 241.243978-327.665845A460.370512 460.370512 0 0 1 512.022119 972.802212z" p-id="10279"></path><path d="M391.195339 215.484528m-51.197788 0a51.197788 51.197788 0 1 0 102.395576 0 51.197788 51.197788 0 1 0-102.395576 0Z" p-id="10280"></path><path d="M637.559096 267.911063m-81.916461 0a81.916461 81.916461 0 1 0 163.832922 0 81.916461 81.916461 0 1 0-163.832922 0Z" p-id="10281"></path></svg>